# xmcd
#
# Track frame offsets:
#  150
#  14892
#  31877
#  48452
#  65260
#  86340
#  104700
#  122507
#  138385
#  154167
#  170695
#  191260
#  206195
#  223270
#  238507
#  255860
#  276022
#  292397
#  308050
#  325327
#
# Disc length: 4551 seconds
#
# Revision: 2
# Processed by: cddbd v1.5.2PL0 Copyright (c) Steve Scherf et al.
# Submitted via: Collectorz.com_Music_Collector 6.10
#
DISCID=2e11c514
DTITLE=Various Artist - This Is Soul [CD2)
DYEAR=1999
DGENRE=Soul
TTITLE0=Carolyn Crawford - My Smile Is Just A Frown
TTITLE1=The Velvettes - He Was Really Sayin' Somethin'
TTITLE2=Mary Johnson - I'll Pick A Rose For My Rose
TTITLE3=The 5th Dimension - Love Hangover
TTITLE4=The Supremes - Love Child
TTITLE5=The Monitors - Going To A Go Go
TTITLE6=The Marvelettes - Used To Be A Playboy
TTITLE7=Syreeta - Reflections
TTITLE8=Bobby Taylor - Reach Out I'll Be There
TTITLE9=Syreeta - With You I'm Born Again
TTITLE10=The Contours - Ready Or Not Here I Come
TTITLE11=Pat Lewis - Rescue Me
TTITLE12=Pat Lewis - Remember Me
TTITLE13=G.C. Cameron - Too Busy Thinking 'bout My Baby
TTITLE14=The Supremes - Nathan Jones
TTITLE15=The Satintones - Reunited
TTITLE16=Kim Weston - Emotion
TTITLE17=Betty Lavette - Jimmy Mack
TTITLE18=The Contours - The Track Of My Tears
TTITLE19=G.C.Cameron/Too Busy Thinking 'bout My Baby
EXTD=
EXTT0=
EXTT1=
EXTT2=
EXTT3=
EXTT4=
EXTT5=
EXTT6=
EXTT7=
EXTT8=
EXTT9=
EXTT10=
EXTT11=
EXTT12=
EXTT13=
EXTT14=
EXTT15=
EXTT16=
EXTT17=
EXTT18=
EXTT19=
PLAYORDER=
